# xmcd
#
# Track frame offsets: 
#        150
#        11005
#        21985
#        31660
#        43267
#        56287
#        64865
#        74947
#        87042
#        98725
#        110742
#        120187
#        129860
#        145290
#        159192
#        169855
#        180672
#        193612
#        206027
#        219935
#        231065
#        243217
#        257727
#        269767
#        282062
#        296542
#        307015
#        317402
#        327160
#        340172
#
# Disc length: 4667 seconds
#
# Revision: 6
# Processed by: cddbd v1.5.2PL0 Copyright (c) Steve Scherf et al.
# Submitted via: ExactAudioCopyFreeDBPlugin 1.0
#
DISCID=b012391e
DTITLE=Various Artist - The Jamie-Guyden Story
DYEAR=1995
DGENRE=Rhythm and Blues
TTITLE0=Duane Eddy - Rebel Rouser
TTITLE1=Barbara Lynn - You'll Lose a Good Thing
TTITLE2=The Stompers (Philly Doo-Wop Group) - Quarter to Four Stomp
TTITLE3=Mitchell Torok - Pink Chiffon
TTITLE4=The Heartbeats - One Million Years
TTITLE5=Billy and The Essentials - Maybe You'll Be There
TTITLE6=The Sherrys - Pop-Pop-Pop-Pie
TTITLE7=The Blackwells - Unchained Melody
TTITLE8=Floyd Robinson - Mother Nature
TTITLE9=Ernie and The Halos - The Girl from Across the Sea
TTITLE10=Titus Turner - Sound Off
TTITLE11=The Beatlettes - Dance, Beatle, Dance
TTITLE12=Tommy McLain - Sweet Dreams
TTITLE13=Barbara Mason - Yes I'm Ready
TTITLE14=Bruce Channel - Going Back to Louisiana
TTITLE15=The Pentagons - I Wonder
TTITLE16=The Kit Kats - Sea of Love
TTITLE17=Brenda and The Tabulations - Dry Your Eyes
TTITLE18=The Ambassadors - I Really Love You
TTITLE19=New Hope - Won't Find Better Than Me
TTITLE20=Cliff Nobles and Co. - The Horse
TTITLE21=Tyrone Ashley - Let Me Be Your Man
TTITLE22=The Show Stoppers - Ain't Nothin' But a House Party
TTITLE23=The Volcanos - Storm Warning
TTITLE24=The Ethics - Tell Me
TTITLE25=The Four J's - Here Am I Broken Hearted
TTITLE26=Danny and The Juniors - Ooh-La-La-Limbo
TTITLE27=Johnny Rivers - Hole in the Ground
TTITLE28=Mac Davis - I'm a Poor Loser
TTITLE29=Savannah Churchill - Time Out for Tears
EXTD=
EXTT0=
EXTT1=
EXTT2=
EXTT3=
EXTT4=
EXTT5=
EXTT6=
EXTT7=
EXTT8=
EXTT9=
EXTT10=
EXTT11=
EXTT12=
EXTT13=
EXTT14=
EXTT15=
EXTT16=
EXTT17=
EXTT18=
EXTT19=
EXTT20=
EXTT21=
EXTT22=
EXTT23=
EXTT24=
EXTT25=
EXTT26=
EXTT27=
EXTT28=
EXTT29=
PLAYORDER=
